<?xml version="1.0" encoding="UTF-8" standalone="no"?><!DOCTYPE svg PUBLIC "-//W3C//DTD SVG 1.1//EN" "http://www.w3.org/Graphics/SVG/1.1/DTD/svg11.dtd"><svg width="100%" height="100%" viewBox="0 0 4267 4267" version="1.1" xmlns="http://www.w3.org/2000/svg" xmlns:xlink="http://www.w3.org/1999/xlink" xml:space="preserve" xmlns:serif="http://www.serif.com/" style="fill-rule:evenodd;clip-rule:evenodd;stroke-linejoin:round;stroke-miterlimit:2;"><g><path d="M3628.83,0l-1274.29,0c-122.167,0 -221.167,99.042 -221.167,221.167l-0,637.833l905,0c115.042,0 208.333,93.292 208.333,208.333l0,442.375c0,115.042 -93.291,208.334 -208.333,208.334l-905,-0l-0,830.583l905,0c115.042,0 208.333,93.292 208.333,208.333l0,442.375c0,115.042 -93.291,208.334 -208.333,208.334l-905,-0l-0,637.833c-0,122.167 99.042,221.167 221.167,221.167l1274.29,-0c352.292,-0 637.834,-285.584 637.834,-637.834l-0,-2990.96c-0,-352.292 -285.584,-637.833 -637.834,-637.833l0,-0.042Z" style="fill:#f2f2f2;fill-rule:nonzero;"/><path d="M2133.33,859.042l0,859.041l905,0c115.042,0 208.334,-93.291 208.334,-208.333l-0,-442.375c-0,-115.042 -93.292,-208.333 -208.334,-208.333l-905,-0Z" style="fill:#347fa9;fill-rule:nonzero;"/><path d="M2133.33,2548.62l0,859.042l905,-0c115.042,-0 208.334,-93.292 208.334,-208.334l-0,-442.375c-0,-115.041 -93.292,-208.333 -208.334,-208.333l-905,0Z" style="fill:#347fa9;fill-rule:nonzero;"/></g><g><path d="M637.833,0l1274.29,0c122.167,0 221.167,99.042 221.167,221.167l-0,637.833l-905,0c-115.042,0 -208.334,93.292 -208.334,208.333l0,442.375c0,115.042 93.292,208.334 208.334,208.334l905,-0l-0,830.583l-905,0c-115.042,0 -208.334,93.292 -208.334,208.333l0,442.375c0,115.042 93.292,208.334 208.334,208.334l905,-0l-0,637.833c-0,122.167 -99.042,221.167 -221.167,221.167l-1274.29,-0c-352.25,-0 -637.833,-285.542 -637.833,-637.834l-0,-2990.96c-0,-352.292 285.583,-637.875 637.833,-637.875Z" style="fill:#347fa9;fill-rule:nonzero;"/><path d="M2133.33,859.042l0,859.041l-905,0c-115.041,0 -208.333,-93.291 -208.333,-208.333l0,-442.375c0,-115.042 93.292,-208.333 208.333,-208.333l905,-0Z" style="fill:#f5f5f6;fill-rule:nonzero;"/><path d="M2133.33,2548.62l0,859.042l-905,-0c-115.041,-0 -208.333,-93.292 -208.333,-208.334l0,-442.375c0,-115.041 93.292,-208.333 208.333,-208.333l905,0Z" style="fill:#f5f5f6;fill-rule:nonzero;"/></g></svg>